<?xml version="1.0" standalone="no"?>
<!DOCTYPE svg PUBLIC "-//W3C//DTD SVG 20010904//EN"
 "http://www.w3.org/TR/2001/REC-SVG-20010904/DTD/svg10.dtd">
<svg version="1.0" xmlns="http://www.w3.org/2000/svg"
 width="147.000000pt" height="147.000000pt" viewBox="0 0 147.000000 147.000000"
 preserveAspectRatio="xMidYMid meet">
<metadata>
Created by potrace 1.11, written by Peter Selinger 2001-2013
</metadata>
<g transform="translate(0.000000,147.000000) scale(0.100000,-0.100000)"
fill="#000000" stroke="none">
<path d="M0 740 l0 -720 735 0 735 0 0 720 0 720 -735 0 -735 0 0 -720z m530
90 c0 -38 3 -70 8 -69 4 0 30 30 57 67 38 50 58 68 78 70 15 2 27 -1 27 -6 0
-5 -20 -36 -45 -68 -25 -31 -45 -65 -45 -73 0 -9 22 -50 50 -91 50 -76 52 -98
8 -87 -15 4 -36 29 -61 72 -37 64 -39 66 -57 50 -13 -12 -20 -34 -22 -69 -3
-43 -6 -51 -23 -51 -19 0 -20 8 -23 150 -1 82 0 155 2 162 3 7 15 13 26 13 18
0 20 -6 20 -70z m402 31 c35 -39 36 -61 4 -61 -14 0 -30 10 -40 26 -14 21 -24
25 -54 22 -30 -2 -38 -7 -40 -26 -5 -31 13 -50 60 -64 22 -6 53 -24 69 -39 78
-72 -15 -176 -125 -139 -36 12 -76 52 -76 76 0 25 41 15 71 -17 24 -25 34 -30
57 -25 15 4 32 14 39 23 20 26 -2 50 -71 82 -68 31 -94 67 -82 116 17 69 135
85 188 26z"/>
</g>
</svg>
